<svg xmlns="http://www.w3.org/2000/svg" version="1.1" xmlns:xlink="http://www.w3.org/1999/xlink" xmlns:svgjs="http://svgjs.dev/svgjs" width="1440" height="560" preserveAspectRatio="none" viewBox="0 0 1440 560">
    <g mask="url(&quot;#SvgjsMask1006&quot;)" fill="none">
        <rect width="1440" height="560" x="0" y="0" fill="#0e2a47"></rect>
        <path d="M-50.38 391.82L-50.38 391.82" stroke="#132e65" stroke-width="1.5"></path>
        <path d="M-50.38 391.82L-47.2 516.58" stroke="#132e65" stroke-width="1.5"></path>
        <path d="M-50.38 391.82L71.1 351.74" stroke="#132e65" stroke-width="1.5"></path>
        <path d="M-50.38 391.82L92.42 497.46" stroke="#132e65" stroke-width="1.5"></path>
        <path d="M-47.2 516.58L-47.2 516.58" stroke="#132e65" stroke-width="1.5"></path>
        <path d="M-47.2 516.58L92.42 497.46" stroke="#132e65" stroke-width="1.5"></path>
        <path d="M-47.2 516.58L-109.06 702.44" stroke="#132e65" stroke-width="1.5"></path>
        <path d="M-47.2 516.58L71.1 351.74" stroke="#132e65" stroke-width="1.5"></path>
        <path d="M-47.2 516.58L85.41 675.54" stroke="#132e65" stroke-width="1.5"></path>
        <path d="M-47.2 516.58L236.22 539.16" stroke="#132e65" stroke-width="1.5"></path>
        <path d="M-109.06 702.44L-109.06 702.44" stroke="#132e65" stroke-width="1.5"></path>
        <path d="M-109.06 702.44L85.41 675.54" stroke="#132e65" stroke-width="1.5"></path>
        <path d="M71.1 351.74L71.1 351.74" stroke="#132e65" stroke-width="1.5"></path>
        <path d="M71.1 351.74L92.42 497.46" stroke="#132e65" stroke-width="1.5"></path>
        <path d="M92.42 497.46L92.42 497.46" stroke="#132e65" stroke-width="1.5"></path>
        <path d="M85.41 675.54L85.41 675.54" stroke="#132e65" stroke-width="1.5"></path>
        <path d="M85.41 675.54L257.09 679.23" stroke="#132e65" stroke-width="1.5"></path>
        <path d="M85.41 675.54L92.42 497.46" stroke="#132e65" stroke-width="1.5"></path>
        <path d="M85.41 675.54L236.22 539.16" stroke="#132e65" stroke-width="1.5"></path>
        <path d="M229.57 349.39L229.57 349.39" stroke="#132e65" stroke-width="1.5"></path>
        <path d="M229.57 349.39L358.39 357.45" stroke="#132e65" stroke-width="1.5"></path>
        <path d="M229.57 349.39L71.1 351.74" stroke="#132e65" stroke-width="1.5"></path>
        <path d="M229.57 349.39L236.22 539.16" stroke="#132e65" stroke-width="1.5"></path>
        <path d="M229.57 349.39L92.42 497.46" stroke="#132e65" stroke-width="1.5"></path>
        <path d="M236.22 539.16L236.22 539.16" stroke="#132e65" stroke-width="1.5"></path>
        <path d="M236.22 539.16L257.09 679.23" stroke="#132e65" stroke-width="1.5"></path>
        <path d="M236.22 539.16L92.42 497.46" stroke="#132e65" stroke-width="1.5"></path>
        <path d="M236.22 539.16L409.23 554.89" stroke="#132e65" stroke-width="1.5"></path>
        <path d="M257.09 679.23L257.09 679.23" stroke="#132e65" stroke-width="1.5"></path>
        <path d="M257.09 679.23L392.93 708.41" stroke="#132e65" stroke-width="1.5"></path>
        <path d="M257.09 679.23L409.23 554.89" stroke="#132e65" stroke-width="1.5"></path>
        <path d="M257.09 679.23L92.42 497.46" stroke="#132e65" stroke-width="1.5"></path>
        <path d="M358.39 357.45L358.39 357.45" stroke="#132e65" stroke-width="1.5"></path>
        <path d="M358.39 357.45L544.26 383.62" stroke="#132e65" stroke-width="1.5"></path>
        <path d="M409.23 554.89L409.23 554.89" stroke="#132e65" stroke-width="1.5"></path>
        <path d="M409.23 554.89L392.93 708.41" stroke="#132e65" stroke-width="1.5"></path>
        <path d="M409.23 554.89L521.46 712.03" stroke="#132e65" stroke-width="1.5"></path>
        <path d="M409.23 554.89L358.39 357.45" stroke="#132e65" stroke-width="1.5"></path>
        <path d="M409.23 554.89L544.26 383.62" stroke="#132e65" stroke-width="1.5"></path>
        <path d="M392.93 708.41L392.93 708.41" stroke="#132e65" stroke-width="1.5"></path>
        <path d="M392.93 708.41L521.46 712.03" stroke="#132e65" stroke-width="1.5"></path>
        <path d="M544.26 383.62L544.26 383.62" stroke="#132e65" stroke-width="1.5"></path>
        <path d="M544.26 383.62L650.63 350.57" stroke="#132e65" stroke-width="1.5"></path>
        <path d="M544.26 383.62L665.09 252.46" stroke="#132e65" stroke-width="1.5"></path>
        <path d="M521.46 712.03L521.46 712.03" stroke="#132e65" stroke-width="1.5"></path>
        <path d="M521.46 712.03L700.83 638.42" stroke="#132e65" stroke-width="1.5"></path>
        <path d="M521.46 712.03L257.09 679.23" stroke="#132e65" stroke-width="1.5"></path>
        <path d="M665.09 252.46L665.09 252.46" stroke="#132e65" stroke-width="1.5"></path>
        <path d="M665.09 252.46L650.63 350.57" stroke="#132e65" stroke-width="1.5"></path>
        <path d="M665.09 252.46L803.8 188.49" stroke="#132e65" stroke-width="1.5"></path>
        <path d="M665.09 252.46L832.18 377.28" stroke="#132e65" stroke-width="1.5"></path>
        <path d="M650.63 350.57L650.63 350.57" stroke="#132e65" stroke-width="1.5"></path>
        <path d="M650.63 350.57L684.4 501.18" stroke="#132e65" stroke-width="1.5"></path>
        <path d="M650.63 350.57L832.18 377.28" stroke="#132e65" stroke-width="1.5"></path>
        <path d="M684.4 501.18L684.4 501.18" stroke="#132e65" stroke-width="1.5"></path>
        <path d="M684.4 501.18L700.83 638.42" stroke="#132e65" stroke-width="1.5"></path>
        <path d="M684.4 501.18L829.01 561.8" stroke="#132e65" stroke-width="1.5"></path>
        <path d="M684.4 501.18L544.26 383.62" stroke="#132e65" stroke-width="1.5"></path>
        <path d="M684.4 501.18L832.18 377.28" stroke="#132e65" stroke-width="1.5"></path>
        <path d="M684.4 501.18L806.11 674.47" stroke="#132e65" stroke-width="1.5"></path>
        <path d="M700.83 638.42L700.83 638.42" stroke="#132e65" stroke-width="1.5"></path>
        <path d="M700.83 638.42L806.11 674.47" stroke="#132e65" stroke-width="1.5"></path>
        <path d="M700.83 638.42L829.01 561.8" stroke="#132e65" stroke-width="1.5"></path>
        <path d="M803.8 188.49L803.8 188.49" stroke="#132e65" stroke-width="1.5"></path>
        <path d="M803.8 188.49L954.81 220.9" stroke="#132e65" stroke-width="1.5"></path>
        <path d="M803.8 188.49L832.18 377.28" stroke="#132e65" stroke-width="1.5"></path>
        <path d="M803.8 188.49L960.3 38.21" stroke="#132e65" stroke-width="1.5"></path>
        <path d="M803.8 188.49L650.63 350.57" stroke="#132e65" stroke-width="1.5"></path>
        <path d="M832.18 377.28L832.18 377.28" stroke="#132e65" stroke-width="1.5"></path>
        <path d="M832.18 377.28L989.29 406.58" stroke="#132e65" stroke-width="1.5"></path>
        <path d="M829.01 561.8L829.01 561.8" stroke="#132e65" stroke-width="1.5"></path>
        <path d="M829.01 561.8L806.11 674.47" stroke="#132e65" stroke-width="1.5"></path>
        <path d="M829.01 561.8L982.7 530.14" stroke="#132e65" stroke-width="1.5"></path>
        <path d="M829.01 561.8L992.23 641.78" stroke="#132e65" stroke-width="1.5"></path>
        <path d="M806.11 674.47L806.11 674.47" stroke="#132e65" stroke-width="1.5"></path>
        <path d="M806.11 674.47L992.23 641.78" stroke="#132e65" stroke-width="1.5"></path>
        <path d="M997.27 -103.04L997.27 -103.04" stroke="#132e65" stroke-width="1.5"></path>
        <path d="M997.27 -103.04L1099.21 -99.22" stroke="#132e65" stroke-width="1.5"></path>
        <path d="M997.27 -103.04L960.3 38.21" stroke="#132e65" stroke-width="1.5"></path>
        <path d="M997.27 -103.04L1141.2 90.91" stroke="#132e65" stroke-width="1.5"></path>
        <path d="M997.27 -103.04L1281.08 -106.48" stroke="#132e65" stroke-width="1.5"></path>
        <path d="M997.27 -103.04L954.81 220.9" stroke="#132e65" stroke-width="1.5"></path>
        <path d="M960.3 38.21L960.3 38.21" stroke="#132e65" stroke-width="1.5"></path>
        <path d="M960.3 38.21L954.81 220.9" stroke="#132e65" stroke-width="1.5"></path>
        <path d="M960.3 38.21L1141.2 90.91" stroke="#132e65" stroke-width="1.5"></path>
        <path d="M954.81 220.9L954.81 220.9" stroke="#132e65" stroke-width="1.5"></path>
        <path d="M954.81 220.9L1138.76 199.36" stroke="#132e65" stroke-width="1.5"></path>
        <path d="M989.29 406.58L989.29 406.58" stroke="#132e65" stroke-width="1.5"></path>
        <path d="M989.29 406.58L982.7 530.14" stroke="#132e65" stroke-width="1.5"></path>
        <path d="M989.29 406.58L1124.25 356.29" stroke="#132e65" stroke-width="1.5"></path>
        <path d="M989.29 406.58L1092.13 533.4" stroke="#132e65" stroke-width="1.5"></path>
        <path d="M989.29 406.58L954.81 220.9" stroke="#132e65" stroke-width="1.5"></path>
        <path d="M989.29 406.58L829.01 561.8" stroke="#132e65" stroke-width="1.5"></path>
        <path d="M982.7 530.14L982.7 530.14" stroke="#132e65" stroke-width="1.5"></path>
        <path d="M982.7 530.14L1092.13 533.4" stroke="#132e65" stroke-width="1.5"></path>
        <path d="M982.7 530.14L992.23 641.78" stroke="#132e65" stroke-width="1.5"></path>
        <path d="M982.7 530.14L832.18 377.28" stroke="#132e65" stroke-width="1.5"></path>
        <path d="M992.23 641.78L992.23 641.78" stroke="#132e65" stroke-width="1.5"></path>
        <path d="M992.23 641.78L1092.13 533.4" stroke="#132e65" stroke-width="1.5"></path>
        <path d="M1099.21 -99.22L1099.21 -99.22" stroke="#132e65" stroke-width="1.5"></path>
        <path d="M1099.21 -99.22L1281.08 -106.48" stroke="#132e65" stroke-width="1.5"></path>
        <path d="M1099.21 -99.22L1141.2 90.91" stroke="#132e65" stroke-width="1.5"></path>
        <path d="M1099.21 -99.22L960.3 38.21" stroke="#132e65" stroke-width="1.5"></path>
        <path d="M1099.21 -99.22L1307.29 64.11" stroke="#132e65" stroke-width="1.5"></path>
        <path d="M1099.21 -99.22L1138.76 199.36" stroke="#132e65" stroke-width="1.5"></path>
        <path d="M1141.2 90.91L1141.2 90.91" stroke="#132e65" stroke-width="1.5"></path>
        <path d="M1141.2 90.91L1138.76 199.36" stroke="#132e65" stroke-width="1.5"></path>
        <path d="M1141.2 90.91L1307.29 64.11" stroke="#132e65" stroke-width="1.5"></path>
        <path d="M1138.76 199.36L1138.76 199.36" stroke="#132e65" stroke-width="1.5"></path>
        <path d="M1138.76 199.36L1124.25 356.29" stroke="#132e65" stroke-width="1.5"></path>
        <path d="M1138.76 199.36L1295.53 260.56" stroke="#132e65" stroke-width="1.5"></path>
        <path d="M1138.76 199.36L1267.83 360.22" stroke="#132e65" stroke-width="1.5"></path>
        <path d="M1138.76 199.36L1307.29 64.11" stroke="#132e65" stroke-width="1.5"></path>
        <path d="M1124.25 356.29L1124.25 356.29" stroke="#132e65" stroke-width="1.5"></path>
        <path d="M1124.25 356.29L1267.83 360.22" stroke="#132e65" stroke-width="1.5"></path>
        <path d="M1124.25 356.29L1092.13 533.4" stroke="#132e65" stroke-width="1.5"></path>
        <path d="M1092.13 533.4L1092.13 533.4" stroke="#132e65" stroke-width="1.5"></path>
        <path d="M1092.13 533.4L1273.47 536.41" stroke="#132e65" stroke-width="1.5"></path>
        <path d="M1281.08 -106.48L1281.08 -106.48" stroke="#132e65" stroke-width="1.5"></path>
        <path d="M1281.08 -106.48L1409.05 -63.08" stroke="#132e65" stroke-width="1.5"></path>
        <path d="M1281.08 -106.48L1307.29 64.11" stroke="#132e65" stroke-width="1.5"></path>
        <path d="M1307.29 64.11L1307.29 64.11" stroke="#132e65" stroke-width="1.5"></path>
        <path d="M1307.29 64.11L1390.07 42.94" stroke="#132e65" stroke-width="1.5"></path>
        <path d="M1307.29 64.11L1409.05 -63.08" stroke="#132e65" stroke-width="1.5"></path>
        <path d="M1295.53 260.56L1295.53 260.56" stroke="#132e65" stroke-width="1.5"></path>
        <path d="M1295.53 260.56L1267.83 360.22" stroke="#132e65" stroke-width="1.5"></path>
        <path d="M1267.83 360.22L1267.83 360.22" stroke="#132e65" stroke-width="1.5"></path>
        <path d="M1267.83 360.22L1404.38 261.62" stroke="#132e65" stroke-width="1.5"></path>
        <path d="M1267.83 360.22L1273.47 536.41" stroke="#132e65" stroke-width="1.5"></path>
        <path d="M1267.83 360.22L1460.1 397.72" stroke="#132e65" stroke-width="1.5"></path>
        <path d="M1273.47 536.41L1273.47 536.41" stroke="#132e65" stroke-width="1.5"></path>
        <path d="M1273.47 536.41L1254.99 686.07" stroke="#132e65" stroke-width="1.5"></path>
        <path d="M1273.47 536.41L1453.68 555.26" stroke="#132e65" stroke-width="1.5"></path>
        <path d="M1254.99 686.07L1254.99 686.07" stroke="#132e65" stroke-width="1.5"></path>
        <path d="M1254.99 686.07L1407.69 671.32" stroke="#132e65" stroke-width="1.5"></path>
        <path d="M1254.99 686.07L1092.13 533.4" stroke="#132e65" stroke-width="1.5"></path>
        <path d="M1254.99 686.07L1453.68 555.26" stroke="#132e65" stroke-width="1.5"></path>
        <path d="M1254.99 686.07L992.23 641.78" stroke="#132e65" stroke-width="1.5"></path>
        <path d="M1409.05 -63.08L1409.05 -63.08" stroke="#132e65" stroke-width="1.5"></path>
        <path d="M1409.05 -63.08L1390.07 42.94" stroke="#132e65" stroke-width="1.5"></path>
        <path d="M1409.05 -63.08L1570.91 -72.05" stroke="#132e65" stroke-width="1.5"></path>
        <path d="M1409.05 -63.08L1553.27 103.11" stroke="#132e65" stroke-width="1.5"></path>
        <path d="M1390.07 42.94L1390.07 42.94" stroke="#132e65" stroke-width="1.5"></path>
        <path d="M1390.07 42.94L1553.27 103.11" stroke="#132e65" stroke-width="1.5"></path>
        <path d="M1390.07 42.94L1281.08 -106.48" stroke="#132e65" stroke-width="1.5"></path>
        <path d="M1390.07 42.94L1570.91 -72.05" stroke="#132e65" stroke-width="1.5"></path>
        <path d="M1404.38 261.62L1404.38 261.62" stroke="#132e65" stroke-width="1.5"></path>
        <path d="M1404.38 261.62L1295.53 260.56" stroke="#132e65" stroke-width="1.5"></path>
        <path d="M1404.38 261.62L1540.14 253.04" stroke="#132e65" stroke-width="1.5"></path>
        <path d="M1404.38 261.62L1460.1 397.72" stroke="#132e65" stroke-width="1.5"></path>
        <path d="M1404.38 261.62L1553.27 103.11" stroke="#132e65" stroke-width="1.5"></path>
        <path d="M1460.1 397.72L1460.1 397.72" stroke="#132e65" stroke-width="1.5"></path>
        <path d="M1460.1 397.72L1607.8 399.34" stroke="#132e65" stroke-width="1.5"></path>
        <path d="M1460.1 397.72L1453.68 555.26" stroke="#132e65" stroke-width="1.5"></path>
        <path d="M1453.68 555.26L1453.68 555.26" stroke="#132e65" stroke-width="1.5"></path>
        <path d="M1453.68 555.26L1407.69 671.32" stroke="#132e65" stroke-width="1.5"></path>
        <path d="M1453.68 555.26L1572.91 697.51" stroke="#132e65" stroke-width="1.5"></path>
        <path d="M1453.68 555.26L1607.8 399.34" stroke="#132e65" stroke-width="1.5"></path>
        <path d="M1407.69 671.32L1407.69 671.32" stroke="#132e65" stroke-width="1.5"></path>
        <path d="M1570.91 -72.05L1570.91 -72.05" stroke="#132e65" stroke-width="1.5"></path>
        <path d="M1570.91 -72.05L1553.27 103.11" stroke="#132e65" stroke-width="1.5"></path>
        <path d="M1553.27 103.11L1553.27 103.11" stroke="#132e65" stroke-width="1.5"></path>
        <path d="M1553.27 103.11L1540.14 253.04" stroke="#132e65" stroke-width="1.5"></path>
        <path d="M1540.14 253.04L1540.14 253.04" stroke="#132e65" stroke-width="1.5"></path>
        <path d="M1540.14 253.04L1607.8 399.34" stroke="#132e65" stroke-width="1.5"></path>
        <path d="M1607.8 399.34L1607.8 399.34" stroke="#132e65" stroke-width="1.5"></path>
        <path d="M1572.91 697.51L1572.91 697.51" stroke="#132e65" stroke-width="1.5"></path>
        <path d="M1572.91 697.51L1407.69 671.32" stroke="#132e65" stroke-width="1.5"></path>
        <circle r="5" cx="-50.38" cy="391.82" fill="#132e65"></circle>
        <circle r="5" cx="-47.2" cy="516.58" fill="#132e65"></circle>
        <circle r="5" cx="-109.06" cy="702.44" fill="#132e65"></circle>
        <circle r="5" cx="71.1" cy="351.74" fill="#132e65"></circle>
        <circle r="5" cx="92.42" cy="497.46" fill="#132e65"></circle>
        <circle r="5" cx="85.41" cy="675.54" fill="#132e65"></circle>
        <circle r="5" cx="229.57" cy="349.39" fill="#132e65"></circle>
        <circle r="5" cx="236.22" cy="539.16" fill="#132e65"></circle>
        <circle r="5" cx="257.09" cy="679.23" fill="#132e65"></circle>
        <circle r="5" cx="358.39" cy="357.45" fill="#132e65"></circle>
        <circle r="5" cx="409.23" cy="554.89" fill="#132e65"></circle>
        <circle r="5" cx="392.93" cy="708.41" fill="#132e65"></circle>
        <circle r="5" cx="544.26" cy="383.62" fill="#132e65"></circle>
        <circle r="5" cx="521.46" cy="712.03" fill="#132e65"></circle>
        <circle r="5" cx="665.09" cy="252.46" fill="#132e65"></circle>
        <circle r="5" cx="650.63" cy="350.57" fill="#132e65"></circle>
        <circle r="5" cx="684.4" cy="501.18" fill="#132e65"></circle>
        <circle r="5" cx="700.83" cy="638.42" fill="#132e65"></circle>
        <circle r="5" cx="803.8" cy="188.49" fill="#132e65"></circle>
        <circle r="5" cx="832.18" cy="377.28" fill="#132e65"></circle>
        <circle r="5" cx="829.01" cy="561.8" fill="#132e65"></circle>
        <circle r="5" cx="806.11" cy="674.47" fill="#132e65"></circle>
        <circle r="5" cx="997.27" cy="-103.04" fill="#132e65"></circle>
        <circle r="5" cx="960.3" cy="38.21" fill="#132e65"></circle>
        <circle r="5" cx="954.81" cy="220.9" fill="#132e65"></circle>
        <circle r="5" cx="989.29" cy="406.58" fill="#132e65"></circle>
        <circle r="5" cx="982.7" cy="530.14" fill="#132e65"></circle>
        <circle r="5" cx="992.23" cy="641.78" fill="#132e65"></circle>
        <circle r="5" cx="1099.21" cy="-99.22" fill="#132e65"></circle>
        <circle r="5" cx="1141.2" cy="90.91" fill="#132e65"></circle>
        <circle r="5" cx="1138.76" cy="199.36" fill="#132e65"></circle>
        <circle r="5" cx="1124.25" cy="356.29" fill="#132e65"></circle>
        <circle r="5" cx="1092.13" cy="533.4" fill="#132e65"></circle>
        <circle r="5" cx="1281.08" cy="-106.48" fill="#132e65"></circle>
        <circle r="5" cx="1307.29" cy="64.11" fill="#132e65"></circle>
        <circle r="5" cx="1295.53" cy="260.56" fill="#132e65"></circle>
        <circle r="5" cx="1267.83" cy="360.22" fill="#132e65"></circle>
        <circle r="5" cx="1273.47" cy="536.41" fill="#132e65"></circle>
        <circle r="5" cx="1254.99" cy="686.07" fill="#132e65"></circle>
        <circle r="5" cx="1409.05" cy="-63.08" fill="#132e65"></circle>
        <circle r="5" cx="1390.07" cy="42.94" fill="#132e65"></circle>
        <circle r="5" cx="1404.38" cy="261.62" fill="#132e65"></circle>
        <circle r="5" cx="1460.1" cy="397.72" fill="#132e65"></circle>
        <circle r="5" cx="1453.68" cy="555.26" fill="#132e65"></circle>
        <circle r="5" cx="1407.69" cy="671.32" fill="#132e65"></circle>
        <circle r="5" cx="1570.91" cy="-72.05" fill="#132e65"></circle>
        <circle r="5" cx="1553.27" cy="103.11" fill="#132e65"></circle>
        <circle r="5" cx="1540.14" cy="253.04" fill="#132e65"></circle>
        <circle r="5" cx="1607.8" cy="399.34" fill="#132e65"></circle>
        <circle r="5" cx="1572.91" cy="697.51" fill="#132e65"></circle>
        <path d="M39.13 516.29L39.13 516.29" stroke="hsl(228.5, 77.2%, 51.5%)" stroke-width="1.5"></path>
        <path d="M39.13 516.29L-89.75 499.38" stroke="hsl(228.5, 77.2%, 51.5%)" stroke-width="1.5"></path>
        <path d="M39.13 516.29L46.17 655.11" stroke="hsl(228.5, 77.2%, 51.5%)" stroke-width="1.5"></path>
        <path d="M39.13 516.29L206.61 533.15" stroke="hsl(228.5, 77.2%, 51.5%)" stroke-width="1.5"></path>
        <path d="M39.13 516.29L-105.42 684.12" stroke="hsl(228.5, 77.2%, 51.5%)" stroke-width="1.5"></path>
        <path d="M39.13 516.29L213.9 700.26" stroke="hsl(228.5, 77.2%, 51.5%)" stroke-width="1.5"></path>
        <path d="M46.17 655.11L46.17 655.11" stroke="hsl(228.5, 77.2%, 51.5%)" stroke-width="1.5"></path>
        <path d="M46.17 655.11L-105.42 684.12" stroke="hsl(228.5, 77.2%, 51.5%)" stroke-width="1.5"></path>
        <path d="M46.17 655.11L213.9 700.26" stroke="hsl(228.5, 77.2%, 51.5%)" stroke-width="1.5"></path>
        <path d="M46.17 655.11L206.61 533.15" stroke="hsl(228.5, 77.2%, 51.5%)" stroke-width="1.5"></path>
        <path d="M46.17 655.11L-89.75 499.38" stroke="hsl(228.5, 77.2%, 51.5%)" stroke-width="1.5"></path>
        <path d="M213.9 700.26L213.9 700.26" stroke="hsl(228.5, 77.2%, 51.5%)" stroke-width="1.5"></path>
        <path d="M213.9 700.26L206.61 533.15" stroke="hsl(228.5, 77.2%, 51.5%)" stroke-width="1.5"></path>
        <path d="M213.9 700.26L396.45 643.32" stroke="hsl(228.5, 77.2%, 51.5%)" stroke-width="1.5"></path>
        <path d="M213.9 700.26L381.71 534.56" stroke="hsl(228.5, 77.2%, 51.5%)" stroke-width="1.5"></path>
        <path d="M213.9 700.26L-105.42 684.12" stroke="hsl(228.5, 77.2%, 51.5%)" stroke-width="1.5"></path>
        <path d="M556.1 495.43L556.1 495.43" stroke="hsl(228.5, 77.2%, 51.5%)" stroke-width="1.5"></path>
        <path d="M556.1 495.43L698.35 511.26" stroke="hsl(228.5, 77.2%, 51.5%)" stroke-width="1.5"></path>
        <path d="M556.1 495.43L554.98 642.15" stroke="hsl(228.5, 77.2%, 51.5%)" stroke-width="1.5"></path>
        <path d="M556.1 495.43L381.71 534.56" stroke="hsl(228.5, 77.2%, 51.5%)" stroke-width="1.5"></path>
        <path d="M556.1 495.43L396.45 643.32" stroke="hsl(228.5, 77.2%, 51.5%)" stroke-width="1.5"></path>
        <path d="M814.63 494.95L814.63 494.95" stroke="hsl(228.5, 77.2%, 51.5%)" stroke-width="1.5"></path>
        <path d="M814.63 494.95L698.35 511.26" stroke="hsl(228.5, 77.2%, 51.5%)" stroke-width="1.5"></path>
        <path d="M1127.8 652.69L1127.8 652.69" stroke="hsl(228.5, 77.2%, 51.5%)" stroke-width="1.5"></path>
        <path d="M1127.8 652.69L1259.92 709.68" stroke="hsl(228.5, 77.2%, 51.5%)" stroke-width="1.5"></path>
        <path d="M1127.8 652.69L1131.32 501.54" stroke="hsl(228.5, 77.2%, 51.5%)" stroke-width="1.5"></path>
        <path d="M1127.8 652.69L955.72 641.45" stroke="hsl(228.5, 77.2%, 51.5%)" stroke-width="1.5"></path>
        <path d="M1127.8 652.69L955.37 534.58" stroke="hsl(228.5, 77.2%, 51.5%)" stroke-width="1.5"></path>
        <path d="M1127.8 652.69L1122.82 337.71" stroke="hsl(228.5, 77.2%, 51.5%)" stroke-width="1.5"></path>
        <path d="M1127.8 652.69L1240.16 353.61" stroke="hsl(228.5, 77.2%, 51.5%)" stroke-width="1.5"></path>
        <path d="M1291.95 -55.3L1291.95 -55.3" stroke="hsl(228.5, 77.2%, 51.5%)" stroke-width="1.5"></path>
        <path d="M1291.95 -55.3L1399.5 -89.13" stroke="hsl(228.5, 77.2%, 51.5%)" stroke-width="1.5"></path>
        <path d="M1291.95 -55.3L1302.85 90.07" stroke="hsl(228.5, 77.2%, 51.5%)" stroke-width="1.5"></path>
        <path d="M1291.95 -55.3L1153.63 104.72" stroke="hsl(228.5, 77.2%, 51.5%)" stroke-width="1.5"></path>
        <path d="M1291.95 -55.3L1454.95 103.95" stroke="hsl(228.5, 77.2%, 51.5%)" stroke-width="1.5"></path>
        <path d="M1291.95 -55.3L1294.35 209.65" stroke="hsl(228.5, 77.2%, 51.5%)" stroke-width="1.5"></path>
        <path d="M1291.95 -55.3L1551.53 79.44" stroke="hsl(228.5, 77.2%, 51.5%)" stroke-width="1.5"></path>
        <path d="M1436.28 350L1436.28 350" stroke="hsl(228.5, 77.2%, 51.5%)" stroke-width="1.5"></path>
        <path d="M1436.28 350L1421.66 260.47" stroke="hsl(228.5, 77.2%, 51.5%)" stroke-width="1.5"></path>
        <path d="M1436.28 350L1549.37 397.1" stroke="hsl(228.5, 77.2%, 51.5%)" stroke-width="1.5"></path>
        <path d="M1436.28 350L1449.31 506.49" stroke="hsl(228.5, 77.2%, 51.5%)" stroke-width="1.5"></path>
        <path d="M1436.28 350L1544.08 190.75" stroke="hsl(228.5, 77.2%, 51.5%)" stroke-width="1.5"></path>
        <path d="M1436.28 350L1240.16 353.61" stroke="hsl(228.5, 77.2%, 51.5%)" stroke-width="1.5"></path>
        <path d="M1436.28 350L1294.35 209.65" stroke="hsl(228.5, 77.2%, 51.5%)" stroke-width="1.5"></path>
        <path d="M1449.31 506.49L1449.31 506.49" stroke="hsl(228.5, 77.2%, 51.5%)" stroke-width="1.5"></path>
        <path d="M1449.31 506.49L1549.37 397.1" stroke="hsl(228.5, 77.2%, 51.5%)" stroke-width="1.5"></path>
        <path d="M1449.31 506.49L1601.39 514.81" stroke="hsl(228.5, 77.2%, 51.5%)" stroke-width="1.5"></path>
        <path d="M1449.31 506.49L1456.74 677.19" stroke="hsl(228.5, 77.2%, 51.5%)" stroke-width="1.5"></path>
        <path d="M1449.31 506.49L1607.08 677.07" stroke="hsl(228.5, 77.2%, 51.5%)" stroke-width="1.5"></path>
        <path d="M1456.74 677.19L1456.74 677.19" stroke="hsl(228.5, 77.2%, 51.5%)" stroke-width="1.5"></path>
        <path d="M1456.74 677.19L1607.08 677.07" stroke="hsl(228.5, 77.2%, 51.5%)" stroke-width="1.5"></path>
        <path d="M1551.53 79.44L1551.53 79.44" stroke="hsl(228.5, 77.2%, 51.5%)" stroke-width="1.5"></path>
        <path d="M1551.53 79.44L1454.95 103.95" stroke="hsl(228.5, 77.2%, 51.5%)" stroke-width="1.5"></path>
        <path d="M1551.53 79.44L1544.08 190.75" stroke="hsl(228.5, 77.2%, 51.5%)" stroke-width="1.5"></path>
        <path d="M1551.53 79.44L1610.08 -81.79" stroke="hsl(228.5, 77.2%, 51.5%)" stroke-width="1.5"></path>
        <path d="M1551.53 79.44L1421.66 260.47" stroke="hsl(228.5, 77.2%, 51.5%)" stroke-width="1.5"></path>
        <path d="M1551.53 79.44L1399.5 -89.13" stroke="hsl(228.5, 77.2%, 51.5%)" stroke-width="1.5"></path>
        <path d="M1551.53 79.44L1302.85 90.07" stroke="hsl(228.5, 77.2%, 51.5%)" stroke-width="1.5"></path>
        <path d="M-89.75 499.38L-89.75 499.38" stroke="hsl(228.5, 77.2%, 51.5%)" stroke-width="1.5"></path>
        <path d="M-89.75 499.38L-105.42 684.12" stroke="hsl(228.5, 77.2%, 51.5%)" stroke-width="1.5"></path>
        <path d="M-105.42 684.12L-105.42 684.12" stroke="hsl(228.5, 77.2%, 51.5%)" stroke-width="1.5"></path>
        <path d="M206.61 533.15L206.61 533.15" stroke="hsl(228.5, 77.2%, 51.5%)" stroke-width="1.5"></path>
        <path d="M206.61 533.15L381.71 534.56" stroke="hsl(228.5, 77.2%, 51.5%)" stroke-width="1.5"></path>
        <path d="M381.71 534.56L381.71 534.56" stroke="hsl(228.5, 77.2%, 51.5%)" stroke-width="1.5"></path>
        <path d="M381.71 534.56L396.45 643.32" stroke="hsl(228.5, 77.2%, 51.5%)" stroke-width="1.5"></path>
        <path d="M381.71 534.56L554.98 642.15" stroke="hsl(228.5, 77.2%, 51.5%)" stroke-width="1.5"></path>
        <path d="M396.45 643.32L396.45 643.32" stroke="hsl(228.5, 77.2%, 51.5%)" stroke-width="1.5"></path>
        <path d="M396.45 643.32L554.98 642.15" stroke="hsl(228.5, 77.2%, 51.5%)" stroke-width="1.5"></path>
        <path d="M554.98 642.15L554.98 642.15" stroke="hsl(228.5, 77.2%, 51.5%)" stroke-width="1.5"></path>
        <path d="M554.98 642.15L698.35 511.26" stroke="hsl(228.5, 77.2%, 51.5%)" stroke-width="1.5"></path>
        <path d="M698.35 511.26L698.35 511.26" stroke="hsl(228.5, 77.2%, 51.5%)" stroke-width="1.5"></path>
        <path d="M698.35 511.26L800.52 655.7" stroke="hsl(228.5, 77.2%, 51.5%)" stroke-width="1.5"></path>
        <path d="M698.35 511.26L840.11 344.4" stroke="hsl(228.5, 77.2%, 51.5%)" stroke-width="1.5"></path>
        <path d="M840.11 344.4L840.11 344.4" stroke="hsl(228.5, 77.2%, 51.5%)" stroke-width="1.5"></path>
        <path d="M840.11 344.4L938.35 369.63" stroke="hsl(228.5, 77.2%, 51.5%)" stroke-width="1.5"></path>
        <path d="M840.11 344.4L814.63 494.95" stroke="hsl(228.5, 77.2%, 51.5%)" stroke-width="1.5"></path>
        <path d="M800.52 655.7L800.52 655.7" stroke="hsl(228.5, 77.2%, 51.5%)" stroke-width="1.5"></path>
        <path d="M800.52 655.7L955.72 641.45" stroke="hsl(228.5, 77.2%, 51.5%)" stroke-width="1.5"></path>
        <path d="M800.52 655.7L814.63 494.95" stroke="hsl(228.5, 77.2%, 51.5%)" stroke-width="1.5"></path>
        <path d="M800.52 655.7L955.37 534.58" stroke="hsl(228.5, 77.2%, 51.5%)" stroke-width="1.5"></path>
        <path d="M800.52 655.7L554.98 642.15" stroke="hsl(228.5, 77.2%, 51.5%)" stroke-width="1.5"></path>
        <path d="M938.35 369.63L938.35 369.63" stroke="hsl(228.5, 77.2%, 51.5%)" stroke-width="1.5"></path>
        <path d="M938.35 369.63L955.37 534.58" stroke="hsl(228.5, 77.2%, 51.5%)" stroke-width="1.5"></path>
        <path d="M938.35 369.63L814.63 494.95" stroke="hsl(228.5, 77.2%, 51.5%)" stroke-width="1.5"></path>
        <path d="M955.37 534.58L955.37 534.58" stroke="hsl(228.5, 77.2%, 51.5%)" stroke-width="1.5"></path>
        <path d="M955.37 534.58L955.72 641.45" stroke="hsl(228.5, 77.2%, 51.5%)" stroke-width="1.5"></path>
        <path d="M955.37 534.58L814.63 494.95" stroke="hsl(228.5, 77.2%, 51.5%)" stroke-width="1.5"></path>
        <path d="M955.37 534.58L1131.32 501.54" stroke="hsl(228.5, 77.2%, 51.5%)" stroke-width="1.5"></path>
        <path d="M955.72 641.45L955.72 641.45" stroke="hsl(228.5, 77.2%, 51.5%)" stroke-width="1.5"></path>
        <path d="M955.72 641.45L814.63 494.95" stroke="hsl(228.5, 77.2%, 51.5%)" stroke-width="1.5"></path>
        <path d="M955.72 641.45L1131.32 501.54" stroke="hsl(228.5, 77.2%, 51.5%)" stroke-width="1.5"></path>
        <path d="M1153.63 104.72L1153.63 104.72" stroke="hsl(228.5, 77.2%, 51.5%)" stroke-width="1.5"></path>
        <path d="M1153.63 104.72L1108.37 207.62" stroke="hsl(228.5, 77.2%, 51.5%)" stroke-width="1.5"></path>
        <path d="M1153.63 104.72L1302.85 90.07" stroke="hsl(228.5, 77.2%, 51.5%)" stroke-width="1.5"></path>
        <path d="M1153.63 104.72L1294.35 209.65" stroke="hsl(228.5, 77.2%, 51.5%)" stroke-width="1.5"></path>
        <path d="M1153.63 104.72L1122.82 337.71" stroke="hsl(228.5, 77.2%, 51.5%)" stroke-width="1.5"></path>
        <path d="M1108.37 207.62L1108.37 207.62" stroke="hsl(228.5, 77.2%, 51.5%)" stroke-width="1.5"></path>
        <path d="M1108.37 207.62L1122.82 337.71" stroke="hsl(228.5, 77.2%, 51.5%)" stroke-width="1.5"></path>
        <path d="M1108.37 207.62L1294.35 209.65" stroke="hsl(228.5, 77.2%, 51.5%)" stroke-width="1.5"></path>
        <path d="M1108.37 207.62L1240.16 353.61" stroke="hsl(228.5, 77.2%, 51.5%)" stroke-width="1.5"></path>
        <path d="M1108.37 207.62L1302.85 90.07" stroke="hsl(228.5, 77.2%, 51.5%)" stroke-width="1.5"></path>
        <path d="M1108.37 207.62L938.35 369.63" stroke="hsl(228.5, 77.2%, 51.5%)" stroke-width="1.5"></path>
        <path d="M1122.82 337.71L1122.82 337.71" stroke="hsl(228.5, 77.2%, 51.5%)" stroke-width="1.5"></path>
        <path d="M1122.82 337.71L1240.16 353.61" stroke="hsl(228.5, 77.2%, 51.5%)" stroke-width="1.5"></path>
        <path d="M1122.82 337.71L1131.32 501.54" stroke="hsl(228.5, 77.2%, 51.5%)" stroke-width="1.5"></path>
        <path d="M1131.32 501.54L1131.32 501.54" stroke="hsl(228.5, 77.2%, 51.5%)" stroke-width="1.5"></path>
        <path d="M1302.85 90.07L1302.85 90.07" stroke="hsl(228.5, 77.2%, 51.5%)" stroke-width="1.5"></path>
        <path d="M1302.85 90.07L1294.35 209.65" stroke="hsl(228.5, 77.2%, 51.5%)" stroke-width="1.5"></path>
        <path d="M1302.85 90.07L1454.95 103.95" stroke="hsl(228.5, 77.2%, 51.5%)" stroke-width="1.5"></path>
        <path d="M1302.85 90.07L1399.5 -89.13" stroke="hsl(228.5, 77.2%, 51.5%)" stroke-width="1.5"></path>
        <path d="M1302.85 90.07L1421.66 260.47" stroke="hsl(228.5, 77.2%, 51.5%)" stroke-width="1.5"></path>
        <path d="M1294.35 209.65L1294.35 209.65" stroke="hsl(228.5, 77.2%, 51.5%)" stroke-width="1.5"></path>
        <path d="M1294.35 209.65L1421.66 260.47" stroke="hsl(228.5, 77.2%, 51.5%)" stroke-width="1.5"></path>
        <path d="M1294.35 209.65L1240.16 353.61" stroke="hsl(228.5, 77.2%, 51.5%)" stroke-width="1.5"></path>
        <path d="M1240.16 353.61L1240.16 353.61" stroke="hsl(228.5, 77.2%, 51.5%)" stroke-width="1.5"></path>
        <path d="M1259.92 709.68L1259.92 709.68" stroke="hsl(228.5, 77.2%, 51.5%)" stroke-width="1.5"></path>
        <path d="M1259.92 709.68L1456.74 677.19" stroke="hsl(228.5, 77.2%, 51.5%)" stroke-width="1.5"></path>
        <path d="M1259.92 709.68L1131.32 501.54" stroke="hsl(228.5, 77.2%, 51.5%)" stroke-width="1.5"></path>
        <path d="M1259.92 709.68L1449.31 506.49" stroke="hsl(228.5, 77.2%, 51.5%)" stroke-width="1.5"></path>
        <path d="M1399.5 -89.13L1399.5 -89.13" stroke="hsl(228.5, 77.2%, 51.5%)" stroke-width="1.5"></path>
        <path d="M1399.5 -89.13L1454.95 103.95" stroke="hsl(228.5, 77.2%, 51.5%)" stroke-width="1.5"></path>
        <path d="M1399.5 -89.13L1610.08 -81.79" stroke="hsl(228.5, 77.2%, 51.5%)" stroke-width="1.5"></path>
        <path d="M1399.5 -89.13L1153.63 104.72" stroke="hsl(228.5, 77.2%, 51.5%)" stroke-width="1.5"></path>
        <path d="M1454.95 103.95L1454.95 103.95" stroke="hsl(228.5, 77.2%, 51.5%)" stroke-width="1.5"></path>
        <path d="M1454.95 103.95L1544.08 190.75" stroke="hsl(228.5, 77.2%, 51.5%)" stroke-width="1.5"></path>
        <path d="M1454.95 103.95L1421.66 260.47" stroke="hsl(228.5, 77.2%, 51.5%)" stroke-width="1.5"></path>
        <path d="M1454.95 103.95L1294.35 209.65" stroke="hsl(228.5, 77.2%, 51.5%)" stroke-width="1.5"></path>
        <path d="M1421.66 260.47L1421.66 260.47" stroke="hsl(228.5, 77.2%, 51.5%)" stroke-width="1.5"></path>
        <path d="M1421.66 260.47L1544.08 190.75" stroke="hsl(228.5, 77.2%, 51.5%)" stroke-width="1.5"></path>
        <path d="M1610.08 -81.79L1610.08 -81.79" stroke="hsl(228.5, 77.2%, 51.5%)" stroke-width="1.5"></path>
        <path d="M1610.08 -81.79L1454.95 103.95" stroke="hsl(228.5, 77.2%, 51.5%)" stroke-width="1.5"></path>
        <path d="M1610.08 -81.79L1544.08 190.75" stroke="hsl(228.5, 77.2%, 51.5%)" stroke-width="1.5"></path>
        <path d="M1544.08 190.75L1544.08 190.75" stroke="hsl(228.5, 77.2%, 51.5%)" stroke-width="1.5"></path>
        <path d="M1544.08 190.75L1549.37 397.1" stroke="hsl(228.5, 77.2%, 51.5%)" stroke-width="1.5"></path>
        <path d="M1549.37 397.1L1549.37 397.1" stroke="hsl(228.5, 77.2%, 51.5%)" stroke-width="1.5"></path>
        <path d="M1549.37 397.1L1601.39 514.81" stroke="hsl(228.5, 77.2%, 51.5%)" stroke-width="1.5"></path>
        <path d="M1549.37 397.1L1421.66 260.47" stroke="hsl(228.5, 77.2%, 51.5%)" stroke-width="1.5"></path>
        <path d="M1601.39 514.81L1601.39 514.81" stroke="hsl(228.5, 77.2%, 51.5%)" stroke-width="1.5"></path>
        <path d="M1601.39 514.81L1607.08 677.07" stroke="hsl(228.5, 77.2%, 51.5%)" stroke-width="1.5"></path>
        <path d="M1607.08 677.07L1607.08 677.07" stroke="hsl(228.5, 77.2%, 51.5%)" stroke-width="1.5"></path>
        <path d="M1607.08 677.07L1549.37 397.1" stroke="hsl(228.5, 77.2%, 51.5%)" stroke-width="1.5"></path>
        <path d="M1607.08 677.07L1259.92 709.68" stroke="hsl(228.5, 77.2%, 51.5%)" stroke-width="1.5"></path>
        <path d="M1607.08 677.07L1436.28 350" stroke="hsl(228.5, 77.2%, 51.5%)" stroke-width="1.5"></path>
        <circle r="25" cx="39.13" cy="516.29" fill="url(&quot;#SvgjsRadialGradient1007&quot;)"></circle>
        <circle r="25" cx="46.17" cy="655.11" fill="url(&quot;#SvgjsRadialGradient1007&quot;)"></circle>
        <circle r="25" cx="213.9" cy="700.26" fill="url(&quot;#SvgjsRadialGradient1007&quot;)"></circle>
        <circle r="25" cx="556.1" cy="495.43" fill="url(&quot;#SvgjsRadialGradient1007&quot;)"></circle>
        <circle r="25" cx="814.63" cy="494.95" fill="url(&quot;#SvgjsRadialGradient1007&quot;)"></circle>
        <circle r="25" cx="1127.8" cy="652.69" fill="url(&quot;#SvgjsRadialGradient1007&quot;)"></circle>
        <circle r="25" cx="1291.95" cy="-55.3" fill="url(&quot;#SvgjsRadialGradient1007&quot;)"></circle>
        <circle r="25" cx="1436.28" cy="350" fill="url(&quot;#SvgjsRadialGradient1007&quot;)"></circle>
        <circle r="25" cx="1449.31" cy="506.49" fill="url(&quot;#SvgjsRadialGradient1007&quot;)"></circle>
        <circle r="25" cx="1456.74" cy="677.19" fill="url(&quot;#SvgjsRadialGradient1007&quot;)"></circle>
        <circle r="25" cx="1551.53" cy="79.44" fill="url(&quot;#SvgjsRadialGradient1007&quot;)"></circle>
        <circle r="5" cx="-89.75" cy="499.38" fill="#8b9ad9"></circle>
        <circle r="5" cx="-105.42" cy="684.12" fill="#8b9ad9"></circle>
        <circle r="5" cx="206.61" cy="533.15" fill="#8b9ad9"></circle>
        <circle r="5" cx="381.71" cy="534.56" fill="#8b9ad9"></circle>
        <circle r="5" cx="396.45" cy="643.32" fill="#8b9ad9"></circle>
        <circle r="5" cx="554.98" cy="642.15" fill="#8b9ad9"></circle>
        <circle r="5" cx="698.35" cy="511.26" fill="#8b9ad9"></circle>
        <circle r="5" cx="840.11" cy="344.4" fill="#8b9ad9"></circle>
        <circle r="5" cx="800.52" cy="655.7" fill="#8b9ad9"></circle>
        <circle r="5" cx="938.35" cy="369.63" fill="#8b9ad9"></circle>
        <circle r="5" cx="955.37" cy="534.58" fill="#8b9ad9"></circle>
        <circle r="5" cx="955.72" cy="641.45" fill="#8b9ad9"></circle>
        <circle r="5" cx="1153.63" cy="104.72" fill="#8b9ad9"></circle>
        <circle r="5" cx="1108.37" cy="207.62" fill="#8b9ad9"></circle>
        <circle r="5" cx="1122.82" cy="337.71" fill="#8b9ad9"></circle>
        <circle r="5" cx="1131.32" cy="501.54" fill="#8b9ad9"></circle>
        <circle r="5" cx="1302.85" cy="90.07" fill="#8b9ad9"></circle>
        <circle r="5" cx="1294.35" cy="209.65" fill="#8b9ad9"></circle>
        <circle r="5" cx="1240.16" cy="353.61" fill="#8b9ad9"></circle>
        <circle r="5" cx="1259.92" cy="709.68" fill="#8b9ad9"></circle>
        <circle r="5" cx="1399.5" cy="-89.13" fill="#8b9ad9"></circle>
        <circle r="5" cx="1454.95" cy="103.95" fill="#8b9ad9"></circle>
        <circle r="5" cx="1421.66" cy="260.47" fill="#8b9ad9"></circle>
        <circle r="5" cx="1610.08" cy="-81.79" fill="#8b9ad9"></circle>
        <circle r="5" cx="1544.08" cy="190.75" fill="#8b9ad9"></circle>
        <circle r="5" cx="1549.37" cy="397.1" fill="#8b9ad9"></circle>
        <circle r="5" cx="1601.39" cy="514.81" fill="#8b9ad9"></circle>
        <circle r="5" cx="1607.08" cy="677.07" fill="#8b9ad9"></circle>
    </g>
    <defs>
        <mask id="SvgjsMask1006">
            <rect width="1440" height="560" fill="#ffffff"></rect>
        </mask>
        <radialGradient id="SvgjsRadialGradient1007">
            <stop stop-color="#ffffff" offset="0.1"></stop>
            <stop stop-color="#1735b3" offset="0.2"></stop>
            <stop stop-color="rgba(23, 53, 179, 0)" offset="1"></stop>
        </radialGradient>
    </defs>
</svg>